<svg width="20" height="20" viewBox="0 0 20 20" fill="none" xmlns="http://www.w3.org/2000/svg">
<path fill-rule="evenodd" clip-rule="evenodd" d="M10 2.49998C13.2166 2.49998 15.8333 5.11685 15.8333 8.33331C15.8333 10.063 15.057 11.6952 13.7575 12.7938L13.7155 12.7524C13.0185 12.0635 12.093 11.684 11.1094 11.684H10V9.99998H10.8333V8.33331H7.5V9.99998H8.33333V11.684H7.52604V13.6145C5.54323 12.6818 4.16667 10.6658 4.16667 8.33331C4.16667 5.11685 6.78354 2.49998 10 2.49998ZM14.9467 13.9694C16.548 12.5591 17.5 10.5059 17.5 8.33331C17.5 4.19779 14.1355 0.833313 10 0.833313C5.86448 0.833313 2.5 4.19779 2.5 8.33331C2.5 12.3869 5.73292 15.6973 9.75552 15.8271L12.4002 18.4461C12.8695 18.9108 13.4927 19.1666 14.1553 19.1666H14.1806C15.5515 19.1666 16.6667 18.0586 16.6667 16.6966C16.6667 16.044 16.3997 15.4059 15.9341 14.9457L14.9467 13.9694Z" fill="white"/>
</svg>
