<svg width="20" height="20" viewBox="0 0 20 20" fill="none" xmlns="http://www.w3.org/2000/svg">
<path fill-rule="evenodd" clip-rule="evenodd" d="M10 2.49998C6.78344 2.49998 4.16667 5.11685 4.16667 8.33331C4.16667 10.063 4.94302 11.6952 6.2425 12.7938L6.28448 12.7524C6.98146 12.0635 7.90698 11.684 8.89062 11.684H10V9.99998H9.16667V8.33331H12.5V9.99998H11.6667V11.684H12.474V13.6145C14.4568 12.6818 15.8333 10.6658 15.8333 8.33331C15.8333 5.11685 13.2165 2.49998 10 2.49998ZM5.05333 13.9694C3.45198 12.5591 2.5 10.5059 2.5 8.33331C2.5 4.19779 5.86448 0.833313 10 0.833313C14.1355 0.833313 17.5 4.19779 17.5 8.33331C17.5 12.3869 14.2671 15.6973 10.2445 15.8271L7.59979 18.4461C7.13052 18.9108 6.50729 19.1666 5.84469 19.1666H5.81938C4.44854 19.1666 3.33333 18.0586 3.33333 16.6966C3.33333 16.044 3.60031 15.4059 4.06594 14.9457L5.05333 13.9694Z" fill="white"/>
</svg>
