<svg width="20" height="20" viewBox="0 0 20 20" fill="none" xmlns="http://www.w3.org/2000/svg">
<path fill-rule="evenodd" clip-rule="evenodd" d="M11.3422 14.404C11.6904 14.939 12.2564 15.3019 12.8903 15.4H15.4C17.3882 15.4 19 13.7882 19 11.8V8.19998C19 6.21175 17.3882 4.59998 15.4 4.59998H4.6C2.61177 4.59998 1 6.21175 1 8.19998V11.8C1 13.7882 2.61177 15.4 4.6 15.4H7.11701C7.73463 15.3044 8.28792 14.9574 8.63794 14.4448L8.75978 14.1629C9.05561 13.4785 9.85023 13.1635 10.5346 13.4594C10.8504 13.5959 11.1022 13.8478 11.2385 14.1637L11.3422 14.404ZM17.2 11.8C17.2 12.7941 16.3941 13.6 15.4 13.6H13.0813C13.0163 13.5771 12.9575 13.5406 12.91 13.4941L12.8912 13.4505C12.5731 12.7134 11.9857 12.1256 11.2488 11.8071C9.65191 11.1169 7.7978 11.8518 7.10753 13.4487L7.08157 13.5088C7.03701 13.5483 6.98393 13.5796 6.92602 13.6H4.6C3.60589 13.6 2.8 12.7941 2.8 11.8V8.19998C2.8 7.20586 3.60589 6.39998 4.6 6.39998H15.4C16.3941 6.39998 17.2 7.20586 17.2 8.19998V11.8Z" fill="white"/>
</svg>
