<svg xmlns="http://www.w3.org/2000/svg" width="720" height="405" viewBox="0 0 720 405" style="cursor: default;">
    <rect width="720" height="405" fill="#2F2F2F"/>
    <path fill="#A0A0A0" d="M198.525 156.875h11.97v73.02h-6.97q-1.62 0-2.7-.53-1.09-.53-2.1-1.79l-38.12-48.69q.3 3.34.3 6.17v44.84h-11.97v-73.02h7.12q.86 0 1.49.07.63.08 1.11.31.48.22.94.65.45.43 1.01 1.14l38.27 48.88q-.15-1.77-.25-3.48-.1-1.72-.1-3.18v-44.39Zm49.19 20.4q5.75 0 10.48 1.87 4.72 1.87 8.08 5.3 3.35 3.43 5.17 8.38 1.82 4.95 1.82 11.06 0 6.16-1.82 11.11-1.82 4.95-5.17 8.44-3.36 3.48-8.08 5.35-4.73 1.87-10.48 1.87-5.81 0-10.56-1.87-4.74-1.87-8.1-5.35-3.36-3.49-5.2-8.44-1.85-4.95-1.85-11.11 0-6.11 1.85-11.06 1.84-4.95 5.2-8.38 3.36-3.43 8.1-5.3 4.75-1.87 10.56-1.87Zm0 43.78q6.46 0 9.57-4.34 3.1-4.34 3.1-12.73 0-8.38-3.1-12.77-3.11-4.4-9.57-4.4-6.57 0-9.72 4.42-3.16 4.42-3.16 12.75 0 8.34 3.16 12.7 3.15 4.37 9.72 4.37Zm75.24-64.18v73.02h-13.63v-73.02h13.63Zm26.82 73.02h-12.48v-51.81h7.63q2.42 0 3.18 2.27l.81 3.84q1.36-1.52 2.85-2.78 1.49-1.26 3.18-2.17 1.7-.91 3.64-1.44 1.94-.53 4.27-.53 4.9 0 8.05 2.65 3.16 2.65 4.72 7.04 1.22-2.57 3.03-4.41 1.82-1.85 3.99-3.01 2.18-1.16 4.62-1.72 2.45-.55 4.93-.55 4.29 0 7.62 1.31 3.34 1.31 5.61 3.84 2.27 2.52 3.46 6.16t1.19 8.33v32.98h-12.48v-32.98q0-4.95-2.17-7.45t-6.36-2.5q-1.92 0-3.56.66-1.64.66-2.88 1.9-1.24 1.23-1.95 3.1-.7 1.87-.7 4.29v32.98h-12.53v-32.98q0-5.2-2.09-7.57-2.1-2.38-6.14-2.38-2.73 0-5.07 1.34-2.35 1.34-4.37 3.66v37.93Zm99.48-13.38v-8.74q-5.4.25-9.09.94-3.68.68-5.91 1.74-2.22 1.06-3.18 2.47-.96 1.42-.96 3.08 0 3.28 1.95 4.7 1.94 1.41 5.07 1.41 3.84 0 6.64-1.39 2.81-1.38 5.48-4.21Zm-26.36-27.22-2.22-3.99q8.94-8.18 21.51-8.18 4.55 0 8.13 1.49 3.59 1.49 6.06 4.14 2.48 2.65 3.77 6.34 1.28 3.68 1.28 8.08v32.72h-5.65q-1.77 0-2.73-.53t-1.51-2.15l-1.12-3.73q-1.96 1.76-3.83 3.1t-3.89 2.25q-2.02.91-4.32 1.39-2.3.48-5.07.48-3.29 0-6.06-.89-2.78-.88-4.8-2.65-2.02-1.76-3.13-4.39-1.11-2.63-1.11-6.11 0-1.97.65-3.91.66-1.95 2.15-3.72 1.49-1.76 3.86-3.33 2.38-1.57 5.83-2.73 3.46-1.16 8.06-1.89 4.59-.73 10.5-.88v-3.03q0-5.21-2.22-7.71t-6.41-2.5q-3.03 0-5.03.71-1.99.71-3.51 1.59-1.51.89-2.75 1.59-1.24.71-2.75.71-1.31 0-2.22-.68-.91-.68-1.47-1.59Zm69.19 13.43q2.32 0 4.04-.63 1.71-.63 2.85-1.74 1.14-1.11 1.72-2.68.58-1.56.58-3.43 0-3.84-2.3-6.09t-6.89-2.25q-4.6 0-6.9 2.25-2.29 2.25-2.29 6.09 0 1.81.58 3.38.58 1.57 1.71 2.7 1.14 1.14 2.88 1.77 1.74.63 4.02.63Zm14.09 29.49q0-1.51-.91-2.47-.91-.96-2.48-1.49-1.56-.53-3.66-.78-2.09-.26-4.44-.38-2.35-.13-4.85-.23-2.5-.1-4.87-.4-2.07 1.16-3.36 2.72-1.29 1.57-1.29 3.64 0 1.36.68 2.55.68 1.19 2.17 2.04 1.49.86 3.87 1.34 2.37.48 5.8.48 3.49 0 6.01-.53 2.53-.53 4.17-1.46 1.64-.94 2.4-2.22.76-1.29.76-2.81Zm-2.48-52.37h14.9v4.65q0 2.22-2.68 2.73l-4.64.86q1.06 2.67 1.06 5.85 0 3.84-1.54 6.95-1.54 3.1-4.27 5.27-2.73 2.18-6.44 3.36-3.71 1.19-8 1.19-1.52 0-2.93-.15-1.42-.15-2.78-.41-2.42 1.47-2.42 3.29 0 1.56 1.44 2.29 1.44.74 3.81 1.04 2.37.3 5.4.38 3.03.07 6.21.33 3.19.25 6.22.88t5.4 2q2.37 1.36 3.81 3.71 1.44 2.35 1.44 6.03 0 3.44-1.69 6.67t-4.9 5.76q-3.21 2.52-7.88 4.06-4.67 1.54-10.63 1.54-5.86 0-10.2-1.14-4.34-1.13-7.22-3.03-2.88-1.89-4.29-4.36-1.42-2.48-1.42-5.16 0-3.63 2.2-6.08t6.03-3.91q-2.07-1.06-3.28-2.83t-1.21-4.65q0-1.16.43-2.4.43-1.23 1.26-2.45.84-1.21 2.1-2.29 1.26-1.09 2.98-1.95-3.94-2.12-6.19-5.65-2.25-3.54-2.25-8.29 0-3.83 1.54-6.94 1.54-3.11 4.3-5.3 2.75-2.2 6.51-3.36 3.76-1.16 8.21-1.16 3.33 0 6.26.68 2.93.68 5.35 1.99Zm32.63 18.18h23.53q0-2.42-.68-4.57-.69-2.14-2.05-3.76-1.36-1.61-3.46-2.55-2.09-.93-4.87-.93-5.4 0-8.51 3.08-3.11 3.08-3.96 8.73Zm31.81 7.53h-32.07q.31 3.99 1.42 6.89 1.11 2.91 2.93 4.8 1.81 1.89 4.31 2.83 2.5.93 5.53.93 3.03 0 5.23-.71 2.2-.7 3.84-1.56 1.64-.86 2.88-1.57 1.23-.7 2.4-.7 1.56 0 2.32 1.16l3.58 4.54q-2.07 2.43-4.64 4.07-2.58 1.64-5.38 2.62-2.8.99-5.71 1.39-2.9.41-5.63.41-5.4 0-10.05-1.8-4.64-1.79-8.08-5.3-3.43-3.51-5.4-8.68-1.97-5.18-1.97-12 0-5.3 1.72-9.97 1.71-4.67 4.92-8.13 3.21-3.46 7.83-5.48 4.62-2.02 10.43-2.02 4.89 0 9.04 1.56 4.14 1.57 7.12 4.57 2.98 3.01 4.67 7.38t1.69 9.97q0 2.83-.61 3.81-.6.99-2.32.99Z"/>
</svg>
